<svg xmlns="http://www.w3.org/2000/svg" width="24" height="24" viewBox="0 0 24 24" fill="none">
  <path fill-rule="evenodd" clip-rule="evenodd" d="M10.8773 5.68081C11.5218 6.3953 11.3175 7.20474 10.7475 7.97276C10.6124 8.15485 10.4567 8.33427 10.2686 8.53197C10.1783 8.62686 10.1079 8.69823 9.9606 8.84564C9.62616 9.18041 9.34501 9.46171 9.11715 9.68955C9.00666 9.80004 9.76106 11.3076 11.2252 12.7731C12.6885 14.2378 14.1959 14.9927 14.3069 14.8817L15.1498 14.0383C15.6139 13.5737 15.8597 13.3496 16.1975 13.128C16.8997 12.6673 17.6656 12.5421 18.3116 13.1197C20.4207 14.6284 21.6143 15.5542 22.199 16.1617C23.3395 17.3468 23.19 19.1708 22.2055 20.2115C21.8641 20.5723 21.4312 21.0054 20.9199 21.4983C17.8272 24.5927 11.3002 22.7096 6.2979 17.7024C1.2945 12.6941 -0.587632 6.16642 2.49858 3.07854C3.05265 2.51577 3.23533 2.33318 3.77494 1.80149C4.7796 0.81156 6.68785 0.656559 7.84786 1.80247C8.45803 2.40522 9.43081 3.65684 10.8773 5.68081Z" fill="white"/>
</svg>