<svg xmlns="http://www.w3.org/2000/svg" width="12" height="12" viewBox="0 0 12 12" fill="none">
  <path fill-rule="evenodd" clip-rule="evenodd" d="M5.78822 4.84506C5.90538 4.96222 6.09533 4.96222 6.21249 4.84506L10.0309 1.02668C10.148 0.909526 10.338 0.909526 10.4551 1.02668L10.9737 1.54523C11.0908 1.66239 11.0908 1.85233 10.9737 1.96949L7.1553 5.78787C7.03814 5.90503 7.03814 6.09497 7.1553 6.21213L10.9737 10.0305C11.0908 10.1477 11.0908 10.3376 10.9737 10.4548L10.4551 10.9733C10.338 11.0905 10.148 11.0905 10.0309 10.9733L6.21249 7.15494C6.09533 7.03778 5.90538 7.03778 5.78822 7.15494L1.96985 10.9733C1.85269 11.0905 1.66274 11.0905 1.54558 10.9733L1.02704 10.4548C0.909881 10.3376 0.909881 10.1477 1.02704 10.0305L4.84541 6.21213C4.96257 6.09497 4.96257 5.90503 4.84541 5.78787L1.02704 1.96949C0.909881 1.85233 0.909881 1.66239 1.02704 1.54523L1.54558 1.02668C1.66274 0.909526 1.85269 0.909525 1.96985 1.02668L5.78822 4.84506Z" fill="#343434"/>
</svg>