<svg xmlns="http://www.w3.org/2000/svg" width="24" height="24" viewBox="0 0 24 24" fill="none">
  <path fill-rule="evenodd" clip-rule="evenodd" d="M12 23C14.1756 23 16.3023 22.3549 18.1113 21.1462C19.9202 19.9375 21.3301 18.2195 22.1627 16.2095C22.9952 14.1995 23.2131 11.9878 22.7886 9.85401C22.3642 7.72022 21.3165 5.76021 19.7782 4.22183C18.2398 2.68345 16.2798 1.6358 14.146 1.21136C12.0122 0.786928 9.80047 1.00476 7.79048 1.83733C5.78049 2.66989 4.06253 4.07979 2.85383 5.88873C1.64514 7.69767 1 9.82441 1 12C1 14.9174 2.15893 17.7153 4.22182 19.7782C6.28473 21.8411 9.08262 23 12 23ZM13.0977 14.5411H14.1283V16.6036H10.0033V14.5411H11.0345L11.0345 12.4786H10.0033V10.4161H13.0977L13.0977 14.5411ZM13.1425 8.35354C13.1425 8.92309 12.6807 9.38479 12.1109 9.38479C11.5412 9.38479 11.0794 8.92309 11.0794 8.35354C11.0794 7.784 11.5412 7.32229 12.1109 7.32229C12.6807 7.32229 13.1425 7.784 13.1425 8.35354Z" fill="white"/>
</svg>