<svg width="127" height="34" viewBox="0 0 127 34" fill="none" xmlns="http://www.w3.org/2000/svg">
<path fill-rule="evenodd" clip-rule="evenodd" d="M6.3929 0H49.0245C52.5404 0 55.4169 2.84617 55.4169 6.32494V27.6749C55.4169 31.1537 52.5404 34 49.0245 34H6.3929C2.87695 34 0.000488281 31.1537 0.000488281 27.6749V6.32494C0.000488281 2.8462 2.87692 0 6.3929 0ZM15.1684 13.6686V15.6632H12.5143L12.5225 15.6572V22.6854C12.5225 23.1675 12.5956 23.5305 12.7411 23.7741C12.8866 24.0124 13.0742 24.1758 13.3038 24.2645C13.539 24.3476 13.7939 24.389 14.0682 24.389C14.2697 24.389 14.4462 24.3752 14.5973 24.3476C14.7484 24.3198 14.866 24.2977 14.9501 24.281L15.4036 26.3338C15.2581 26.389 15.0508 26.4444 14.7821 26.4998C14.5133 26.5608 14.1774 26.5941 13.7742 26.5997C13.1135 26.6108 12.4974 26.4945 11.9262 26.2506C11.3551 26.0068 10.8933 25.6301 10.5405 25.1204C10.1877 24.6106 10.0113 23.9709 10.0113 23.2008V15.6743L10.0034 15.6632H8.12151V13.6686H10.0008L10.0112 13.6597V10.6104H12.5225V13.6797L12.5129 13.6686H15.1684ZM21.7009 26.716C20.8835 26.716 20.1444 26.5663 19.4835 26.2673C18.8228 25.9627 18.2994 25.5221 17.9128 24.9458C17.5321 24.3696 17.3419 23.6632 17.3419 22.8267C17.3419 22.1065 17.4818 21.5137 17.7617 21.0483C18.0417 20.5829 18.4196 20.2146 18.8956 19.9431C19.3717 19.6715 19.9035 19.4666 20.4915 19.3282C21.0794 19.1896 21.6786 19.0843 22.2889 19.0122C23.0618 18.9236 23.6889 18.8516 24.1704 18.7962C24.6519 18.7352 25.0019 18.6383 25.2202 18.5055C25.4386 18.3723 25.548 18.1562 25.548 17.8572V17.799C25.548 17.0732 25.3406 16.5109 24.9262 16.112C24.5177 15.7131 23.9072 15.5137 23.0953 15.5137C22.2498 15.5137 21.5833 15.6992 21.0962 16.0704C20.6147 16.436 20.2816 16.8433 20.0968 17.292L17.7366 16.7603C18.0164 15.9845 18.4254 15.3584 18.9629 14.882C19.5061 14.3999 20.1303 14.051 20.8359 13.8348C21.5414 13.6134 22.2835 13.5026 23.0618 13.5026C23.5768 13.5026 24.1228 13.5635 24.6996 13.6853C25.2818 13.8016 25.8249 14.0176 26.3291 14.3336C26.8384 14.6493 27.2557 15.1008 27.5806 15.6882C27.9053 16.2698 28.0676 17.0262 28.0676 17.9568V26.4335H25.615V24.6883H25.5142C25.3519 25.0096 25.1082 25.3254 24.7835 25.6357C24.4588 25.9459 24.0416 26.2036 23.532 26.4085C23.0224 26.6137 22.4122 26.716 21.7009 26.716ZM22.247 24.7214C22.9414 24.7214 23.5348 24.5858 24.0276 24.3142C24.5261 24.0427 24.9039 23.6883 25.1614 23.2504C25.4248 22.8072 25.5562 22.3336 25.5562 21.8295V20.1839C25.4667 20.2726 25.2931 20.3557 25.0356 20.4333C24.7836 20.5054 24.4951 20.5689 24.1704 20.6243C23.8457 20.6742 23.5292 20.7214 23.2212 20.7657C22.9133 20.8044 22.6556 20.8378 22.4485 20.8654C21.9614 20.9263 21.5161 21.0288 21.1131 21.173C20.7155 21.3169 20.3964 21.5248 20.1556 21.7961C19.9204 22.0621 19.8028 22.4166 19.8028 22.8598C19.8028 23.4749 20.0324 23.9402 20.4916 24.2559C20.9506 24.5663 21.5359 24.7214 22.247 24.7214ZM33.3949 13.6685L36.2423 18.6383L39.1146 13.6685H41.8613L37.8384 20.0509L41.895 26.4335H39.1483L36.2423 21.6633L33.3445 26.4335H30.5896L34.6044 20.0509L30.64 13.6685H33.3949ZM44.4398 26.4335V13.6685H46.9514V26.4335H44.4398ZM45.7083 11.6991C45.2715 11.6991 44.8963 11.5549 44.5829 11.2668C44.2746 10.9732 44.1208 10.6243 44.1208 10.2198C44.1208 9.80977 44.2746 9.46063 44.5829 9.17271C44.8963 8.87903 45.2715 8.73228 45.7083 8.73228C46.145 8.73228 46.5175 8.87903 46.8254 9.17271C47.1389 9.46063 47.2958 9.80977 47.2958 10.2198C47.2958 10.6243 47.1389 10.9732 46.8254 11.2668C46.5175 11.5549 46.145 11.6991 45.7083 11.6991Z" fill="#343434"/>
<path fill-rule="evenodd" clip-rule="evenodd" d="M100.233 20.2146C100.233 19.178 99.8706 18.2959 99.1552 17.5377C98.4364 16.7762 97.5617 16.4006 96.5107 16.4006C95.4563 16.4006 94.585 16.7762 93.8663 17.5377C93.1544 18.2959 92.7882 19.178 92.7882 20.2146C92.7882 21.251 93.1509 22.1333 93.8663 22.8913C94.585 23.6529 95.4597 24.0285 96.5107 24.0285C97.5651 24.0285 98.4364 23.6529 99.1552 22.8913C99.8706 22.1333 100.233 21.251 100.233 20.2146ZM116.507 25.9808C116.507 26.2122 116.317 26.4001 116.083 26.4001H114.211C113.978 26.4001 113.788 26.2122 113.788 25.9808V18.7218C113.788 17.3734 112.672 16.2698 111.309 16.2698C109.946 16.2698 108.831 17.3734 108.831 18.7218V25.9808C108.831 26.2122 108.641 26.4001 108.407 26.4001H106.536C106.302 26.4001 106.112 26.2122 106.112 25.9808V14.3409C106.112 14.1095 106.302 13.9216 106.536 13.9216H108.411C108.645 13.9216 108.834 14.1095 108.834 14.3409V14.9581C109.034 14.7536 109.251 14.569 109.489 14.398C110.201 13.888 111.014 13.6567 111.889 13.6567C112.618 13.6567 113.408 13.7505 114.062 14.0859C114.605 14.3643 115.073 14.7401 115.445 15.2197C115.51 15.3037 115.574 15.3909 115.632 15.4781C115.94 15.0655 116.307 14.6998 116.734 14.3945C117.446 13.8847 118.259 13.6532 119.134 13.6532C119.863 13.6532 120.653 13.7472 121.307 14.0826C121.85 14.361 122.318 14.7367 122.691 15.2164C123.474 16.2226 123.755 17.4471 123.755 18.6983V25.9741C123.755 26.2055 123.565 26.3934 123.331 26.3934H121.46C121.226 26.3934 121.036 26.2055 121.036 25.9741V18.5272C121.036 17.2894 120.012 16.273 118.758 16.273C117.503 16.273 116.48 17.2861 116.48 18.5272C116.48 21.0129 116.497 23.4951 116.507 25.9808V25.9808ZM100.233 25.1389C99.1315 26.1753 97.7888 26.7154 96.2157 26.7154C94.446 26.7154 92.9712 26.031 91.7948 24.7229C90.6421 23.4415 90.0691 21.9287 90.0691 20.2111C90.0691 18.4971 90.6421 16.9841 91.7948 15.6995C92.9678 14.3945 94.446 13.707 96.2157 13.707C97.7888 13.707 99.1315 14.2469 100.233 15.2835V14.3945C100.233 14.1631 100.423 13.9752 100.657 13.9752H102.529C102.762 13.9752 102.952 14.1631 102.952 14.3945V26.0344C102.952 26.2659 102.763 26.4537 102.529 26.4537H100.657C100.423 26.4537 100.233 26.2659 100.233 26.0344V25.1388V25.1389ZM85.2752 14.8642C85.8956 14.1196 86.733 13.66 87.8484 13.66C88.3129 13.66 88.7639 13.7505 89.1911 13.9316C89.3503 13.9987 89.4452 14.1464 89.4452 14.314V16.7997C89.4452 16.9674 89.3503 17.1117 89.1944 17.1821C89.0384 17.2493 88.8656 17.2224 88.7401 17.1083C88.4282 16.8298 88.0688 16.6354 87.6416 16.6354C87.2755 16.6354 86.9398 16.7292 86.6516 16.954C86.3397 17.1989 86.0855 17.4974 85.8855 17.8395C85.4583 18.5708 85.2718 19.3691 85.2718 20.2111V26.0344C85.2718 26.2659 85.0819 26.4537 84.8481 26.4537H82.9766C82.7426 26.4537 82.5528 26.2659 82.5528 26.0344V14.314C82.5528 14.0826 82.7426 13.8947 82.9766 13.8947H84.8481C85.0819 13.8947 85.2718 14.0826 85.2718 14.314V14.8642H85.2752L85.2752 14.8642ZM77.0741 19.6543H70.307C70.0731 19.6543 69.8833 19.4666 69.8833 19.235V17.6214C69.8833 17.3901 70.073 17.2022 70.307 17.2022H79.7728C79.9016 17.2022 80.0134 17.2525 80.0948 17.3498C80.1797 17.4471 80.2101 17.5645 80.1898 17.6886L80.0034 18.8023C79.5897 21.1034 78.4506 22.9852 76.613 24.4512C74.7958 25.9003 72.7244 26.6584 70.3884 26.6584C69.0729 26.6584 67.7948 26.4135 66.5845 25.8969C65.4182 25.4004 64.3706 24.7128 63.4722 23.8239C62.5737 22.9349 61.8787 21.8985 61.377 20.7445C60.8549 19.5503 60.6074 18.279 60.6074 16.9741C60.6074 15.6659 60.8549 14.3979 61.377 13.1971C61.8787 12.0431 62.5737 11.0032 63.4722 10.1177C64.3706 9.22882 65.4182 8.54116 66.5845 8.04466C67.7371 7.5549 68.9475 7.2832 70.202 7.2832C72.4124 7.2832 74.4364 7.89036 76.2164 9.19521C77.9624 10.4766 79.1456 12.1639 79.7795 14.2202C79.8202 14.351 79.7965 14.4817 79.7152 14.5891C79.6338 14.6998 79.5151 14.7568 79.3761 14.7568H77.3961C77.2198 14.7568 77.0673 14.6562 77.0029 14.4918C76.4638 13.1333 75.6027 12.0263 74.389 11.1944C73.1854 10.3692 71.853 9.96662 70.3918 9.96662C68.4356 9.96662 66.7778 10.6442 65.3945 12.0129C64.0113 13.3815 63.3264 15.0218 63.3264 16.9573C63.3264 18.8928 64.0146 20.5298 65.3877 21.9051C66.7675 23.2872 68.4288 23.9714 70.3918 23.9714C71.9513 23.9714 73.3582 23.5287 74.6297 22.6364C75.7418 21.8615 76.5486 20.8653 77.0741 19.6543Z" fill="#343434"/>
<path fill-rule="evenodd" clip-rule="evenodd" d="M124.111 8.63672C124.113 8.62228 124.116 8.60869 124.119 8.59589C124.121 8.58761 124.121 8.58189 124.124 8.57562C124.129 8.56406 124.126 8.5692 124.133 8.56249C124.129 8.53117 124.171 8.42442 124.185 8.39999C124.191 8.37917 124.216 8.33509 124.216 8.33484C124.217 8.33298 124.218 8.33276 124.219 8.33188C124.223 8.26564 124.4 8.04714 124.459 7.98884C124.506 7.94213 124.557 7.89477 124.617 7.85441C124.706 7.79338 124.725 7.78999 124.799 7.74441C124.981 7.66151 125.155 7.60824 125.367 7.60857C125.554 7.60882 125.748 7.64798 125.913 7.72476C125.915 7.72575 125.925 7.73078 125.927 7.73154C125.941 7.74081 125.931 7.73231 125.938 7.74194C125.964 7.74328 126.081 7.81274 126.098 7.82871C126.14 7.84293 126.261 7.95413 126.291 7.98326C126.319 8.01148 126.436 8.13672 126.446 8.17555C126.462 8.18827 126.533 8.306 126.535 8.33188L126.554 8.36018C126.707 8.68375 126.706 9.08255 126.557 9.40788C126.551 9.41932 126.547 9.428 126.542 9.43795L126.529 9.461C126.529 9.46023 126.528 9.46304 126.527 9.46399C126.494 9.5617 126.354 9.72795 126.283 9.79861C126.225 9.85582 126.005 10.0295 125.938 10.033L125.906 10.0532C125.895 10.0583 125.885 10.0627 125.87 10.0665C125.845 10.0805 125.737 10.1219 125.705 10.1182C125.695 10.129 125.708 10.1213 125.688 10.1284C125.682 10.1308 125.679 10.1308 125.672 10.1322C125.66 10.1347 125.645 10.1376 125.63 10.1403C125.59 10.1453 125.546 10.1569 125.503 10.1602C125.457 10.1638 125.411 10.1658 125.362 10.1659C125.229 10.1661 125.202 10.1486 125.098 10.1353C125.085 10.132 125.072 10.1301 125.057 10.1263C125.042 10.1224 125.038 10.123 125.029 10.1132C124.997 10.1154 124.898 10.0736 124.865 10.0606C124.832 10.0461 124.735 10.006 124.72 9.98288C124.701 9.97934 124.699 9.97522 124.68 9.9633C124.607 9.91925 124.52 9.84743 124.464 9.7911C124.434 9.76175 124.28 9.59196 124.27 9.53716C124.247 9.52258 124.205 9.42534 124.191 9.39384C124.178 9.35275 124.135 9.27232 124.138 9.23137C124.127 9.22179 124.137 9.23735 124.128 9.21526C124.125 9.20844 124.125 9.20684 124.124 9.19966C124.121 9.18792 124.119 9.17501 124.116 9.16323C124.099 9.07945 124.085 9.00022 124.085 8.90255C124.085 8.853 124.086 8.80557 124.091 8.75784C124.095 8.71733 124.106 8.67464 124.111 8.6368V8.63672ZM124.35 7.6451L124.101 7.89601C124.092 7.91647 124.066 7.9449 124.051 7.96671C124.041 7.98257 124.015 8.02493 124.001 8.0331L123.987 8.06394C123.954 8.11666 123.904 8.21616 123.882 8.27078L123.858 8.32689C123.853 8.35117 123.838 8.38621 123.829 8.41381C123.822 8.43681 123.809 8.47389 123.806 8.49643C123.803 8.50729 123.802 8.51663 123.799 8.52924C123.793 8.55017 123.8 8.53963 123.788 8.54951C123.792 8.57587 123.77 8.6687 123.767 8.70275C123.762 8.74971 123.754 8.81537 123.756 8.86241C123.766 9.11241 123.789 9.29518 123.89 9.52192C124.021 9.8144 124.18 9.99979 124.423 10.1823C124.619 10.33 124.879 10.43 125.129 10.4712C125.155 10.4755 125.297 10.488 125.305 10.4917H125.449C125.461 10.4861 125.566 10.48 125.59 10.4766C125.636 10.4701 125.683 10.4623 125.727 10.4521C125.909 10.4101 126.03 10.3602 126.187 10.275C126.242 10.245 126.369 10.1541 126.379 10.1499L126.633 9.90391C126.648 9.87503 126.688 9.82858 126.709 9.79927C126.723 9.77918 126.767 9.70258 126.783 9.69164C126.785 9.67804 126.784 9.68088 126.792 9.66619L126.863 9.52557C126.887 9.47008 126.909 9.41141 126.928 9.34925C126.963 9.2309 126.997 9.0797 126.997 8.93759L126.998 8.86241L127 8.81654C126.991 8.80425 126.993 8.79175 126.993 8.77206C126.991 8.70439 126.964 8.55513 126.948 8.49643C126.941 8.45093 126.897 8.32882 126.878 8.28431C126.863 8.24938 126.85 8.22076 126.832 8.18466C126.821 8.16242 126.79 8.10919 126.785 8.0906C126.782 8.08713 126.782 8.08772 126.778 8.08225L126.708 7.97123C126.689 7.95183 126.61 7.83921 126.523 7.7532C126.432 7.66311 126.324 7.59096 126.303 7.56988C126.242 7.54947 126.04 7.36134 125.577 7.2964C125.554 7.29319 125.463 7.28984 125.448 7.2832H125.305C125.296 7.28754 125.179 7.29607 125.155 7.29954C125.108 7.30621 125.061 7.31507 125.014 7.32575C124.923 7.3465 124.844 7.37224 124.764 7.40439C124.692 7.43367 124.607 7.47381 124.545 7.51275C124.509 7.53496 124.478 7.55453 124.443 7.57776C124.411 7.59891 124.38 7.62909 124.349 7.6451H124.35Z" fill="#343434"/>
<path fill-rule="evenodd" clip-rule="evenodd" d="M125.375 8.76555C125.299 8.77011 125.225 8.77029 125.146 8.77029V8.39501C125.226 8.39501 125.355 8.38747 125.419 8.40901C125.503 8.43125 125.538 8.5022 125.53 8.60874C125.526 8.65526 125.512 8.69201 125.485 8.71761C125.451 8.74976 125.429 8.75541 125.375 8.76555H125.375ZM125.531 9.25819C125.532 9.25987 125.534 9.26045 125.536 9.26541C125.542 9.27522 125.538 9.26902 125.539 9.27543L125.692 9.58191H126.094H126.099C126.089 9.56507 126.071 9.53747 126.068 9.51669C126.058 9.50637 126.04 9.46805 126.033 9.45412C126.022 9.43141 126.012 9.41132 126.002 9.38992L125.934 9.25108C125.932 9.24809 125.934 9.25239 125.929 9.24379C125.927 9.24073 125.926 9.24011 125.924 9.23551C125.921 9.22964 125.919 9.22559 125.917 9.22045C125.912 9.21014 125.908 9.20233 125.903 9.19092C125.894 9.17317 125.878 9.14673 125.873 9.12912C125.837 9.07859 125.83 9.04698 125.775 8.98963C125.726 8.93789 125.703 8.92772 125.629 8.8991C125.711 8.87052 125.783 8.83347 125.829 8.77474C125.885 8.70437 125.903 8.65078 125.909 8.53458C125.908 8.44478 125.9 8.41959 125.879 8.347C125.855 8.30984 125.863 8.30605 125.823 8.26175C125.797 8.23324 125.774 8.21767 125.742 8.19821C125.698 8.17203 125.582 8.13385 125.521 8.13316C125.506 8.13046 125.505 8.13054 125.49 8.12933C125.482 8.12875 125.481 8.12926 125.473 8.12718C125.463 8.12448 125.47 8.12733 125.464 8.12277L124.766 8.12109L124.766 9.58188H125.146L125.146 9.02813C125.253 9.03437 125.341 9.02004 125.408 9.07429C125.453 9.11093 125.515 9.20685 125.531 9.25815L125.531 9.25819Z" fill="#343434"/>
</svg>
