<svg xmlns="http://www.w3.org/2000/svg" width="24" height="24" viewBox="0 0 24 24" fill="none">
  <g clip-path="url(#clip0_409_2438)">
    <path d="M16 18.7195V20.6396H0.444444C0.198667 20.6396 0 20.8546 0 21.1196C0 21.3845 0.198667 21.5996 0.444444 21.5996H16V23.5196C16 23.7846 16.1987 23.9996 16.4444 23.9996H21.7778C22.0236 23.9996 22.2222 23.7846 22.2222 23.5196V21.5996H23.5556C23.8013 21.5996 24 21.3845 24 21.1196C24 20.8546 23.8013 20.6396 23.5556 20.6396H22.2222V18.7195C22.2222 18.4545 22.0236 18.2395 21.7778 18.2395H16.4444C16.1987 18.2395 16 18.4545 16 18.7195Z" fill="white"/>
    <path d="M8.88889 9.59927V11.5193H0.444444C0.198667 11.5193 0 11.7344 0 11.9993C0 12.2643 0.198667 12.4793 0.444444 12.4793H8.88889V14.3994C8.88889 14.6643 9.08756 14.8794 9.33333 14.8794H14.6667C14.9124 14.8794 15.1111 14.6643 15.1111 14.3994V12.4793H23.5556C23.8013 12.4793 24 12.2643 24 11.9993C24 11.7344 23.8013 11.5193 23.5556 11.5193H15.1111V9.59927C15.1111 9.33431 14.9124 9.11926 14.6667 9.11926H9.33333C9.08756 9.11926 8.88889 9.33431 8.88889 9.59927Z" fill="white"/>
    <path d="M1.77778 0.480011V2.40005H0.444444C0.198667 2.40005 0 2.6151 0 2.88006C0 3.14503 0.198667 3.36007 0.444444 3.36007H1.77778V5.28012C1.77778 5.54508 1.97644 5.76013 2.22222 5.76013H7.55556C7.80133 5.76013 8 5.54508 8 5.28012V3.36007H23.5556C23.8013 3.36007 24 3.14503 24 2.88006C24 2.6151 23.8013 2.40005 23.5556 2.40005H8V0.480011C8 0.215045 7.80133 0 7.55556 0H2.22222C1.97644 0 1.77778 0.215045 1.77778 0.480011Z" fill="white"/>
  </g>
  <defs>
    <clipPath id="clip0_409_2438">
      <rect width="24" height="24" fill="white"/>
    </clipPath>
  </defs>
</svg>