<svg xmlns="http://www.w3.org/2000/svg" width="20" height="20" viewBox="0 0 20 20" fill="none">
  <g clip-path="url(#clip0_1950_8181)">
    <path fill-rule="evenodd" clip-rule="evenodd" d="M8.74972 1.66667C7.62022 1.66677 6.50711 1.93698 5.50327 2.45475C4.49943 2.97252 3.63397 3.72285 2.97909 4.64313C2.32421 5.56341 1.8989 6.62696 1.73865 7.74504C1.5784 8.86312 1.68785 10.0033 2.05787 11.0705C2.4279 12.1377 3.04776 13.1009 3.86575 13.8798C4.68375 14.6587 5.67614 15.2307 6.76015 15.548C7.84416 15.8654 8.98834 15.9189 10.0972 15.7041C11.2061 15.4893 12.2476 15.0125 13.1347 14.3133L16.1781 17.3567C16.3352 17.5085 16.5457 17.5925 16.7642 17.5906C16.9827 17.5887 17.1917 17.501 17.3462 17.3465C17.5007 17.192 17.5884 16.983 17.5903 16.7645C17.5922 16.546 17.5082 16.3355 17.3564 16.1783L14.3131 13.135C15.1364 12.0905 15.649 10.8353 15.7923 9.51311C15.9356 8.19088 15.7037 6.85502 15.1232 5.65842C14.5428 4.46181 13.6371 3.4528 12.51 2.74686C11.3828 2.04093 10.0797 1.66658 8.74972 1.66667ZM3.33306 8.75001C3.33306 7.31342 3.90374 5.93567 4.91956 4.91984C5.93538 3.90402 7.31313 3.33334 8.74972 3.33334C10.1863 3.33334 11.5641 3.90402 12.5799 4.91984C13.5957 5.93567 14.1664 7.31342 14.1664 8.75001C14.1664 10.1866 13.5957 11.5643 12.5799 12.5802C11.5641 13.596 10.1863 14.1667 8.74972 14.1667C7.31313 14.1667 5.93538 13.596 4.91956 12.5802C3.90374 11.5643 3.33306 10.1866 3.33306 8.75001Z" fill="#545454"/>
  </g>
  <defs>
    <clipPath id="clip0_1950_8181">
      <rect width="20" height="20" fill="white"/>
    </clipPath>
  </defs>
</svg>