<svg xmlns="http://www.w3.org/2000/svg" width="24" height="24" viewBox="0 0 24 24" fill="none">
  <path d="M20.8002 10.8C20.8002 8.46609 19.8731 6.22778 18.2227 4.57746C16.5724 2.92714 14.3341 2 12.0002 2C9.66629 2 7.42798 2.92714 5.77766 4.57746C4.12734 6.22778 3.2002 8.46609 3.2002 10.8" stroke="white" stroke-width="2" stroke-linecap="round" stroke-linejoin="round"/>
  <path d="M20.8 18.4993V19.0493C20.8 19.6328 20.5682 20.1924 20.1556 20.605C19.7431 21.0176 19.1835 21.2493 18.6 21.2493H14.75M1 15.6811V13.6175C1.00007 13.1269 1.16412 12.6505 1.46608 12.2638C1.76803 11.8771 2.19055 11.6025 2.6665 11.4835L4.5805 11.0039C4.67776 10.9797 4.77926 10.978 4.87729 10.9988C4.97533 11.0197 5.06733 11.0626 5.14631 11.1243C5.2253 11.186 5.28919 11.2649 5.33315 11.3549C5.3771 11.445 5.39996 11.5439 5.4 11.6441V17.6534C5.40017 17.7539 5.37742 17.853 5.33347 17.9434C5.28953 18.0337 5.22555 18.1128 5.14641 18.1746C5.06727 18.2365 4.97506 18.2794 4.8768 18.3002C4.77854 18.3211 4.67682 18.3192 4.5794 18.2947L2.6654 17.8162C2.18966 17.6971 1.76738 17.4223 1.46564 17.0357C1.1639 16.6491 1.00001 16.1727 1 15.6822V15.6811ZM23 15.6811V13.6175C22.9999 13.1269 22.8359 12.6505 22.5339 12.2638C22.232 11.8771 21.8094 11.6025 21.3335 11.4835L19.4195 11.0039C19.3222 10.9797 19.2207 10.978 19.1227 10.9988C19.0247 11.0197 18.9327 11.0626 18.8537 11.1243C18.7747 11.186 18.7108 11.2649 18.6669 11.3549C18.6229 11.445 18.6 11.5439 18.6 11.6441V17.6534C18.5999 17.7538 18.6226 17.8528 18.6665 17.943C18.7104 18.0332 18.7742 18.1122 18.8533 18.1741C18.9323 18.2359 19.0243 18.2789 19.1224 18.2998C19.2206 18.3207 19.3222 18.319 19.4195 18.2947L21.3335 17.8162C21.8094 17.6973 22.232 17.4226 22.5339 17.036C22.8359 16.6493 22.9999 16.1728 23 15.6822V15.6811Z" stroke="white" stroke-width="2"/>
  <path d="M13.6502 22.8996H10.3502C9.91259 22.8996 9.4929 22.7258 9.18347 22.4163C8.87403 22.1069 8.7002 21.6872 8.7002 21.2496C8.7002 20.812 8.87403 20.3923 9.18347 20.0829C9.4929 19.7734 9.91259 19.5996 10.3502 19.5996H13.6502C14.0878 19.5996 14.5075 19.7734 14.8169 20.0829C15.1264 20.3923 15.3002 20.812 15.3002 21.2496C15.3002 21.6872 15.1264 22.1069 14.8169 22.4163C14.5075 22.7258 14.0878 22.8996 13.6502 22.8996Z" stroke="white" stroke-width="2"/>
</svg>