<svg width="40" height="47" viewBox="0 0 40 47" fill="none" xmlns="http://www.w3.org/2000/svg">
<rect opacity="0.01" width="40" height="40" fill="white"/>
<g filter="url(#filter0_d_0_1754)">
<path d="M20.0217 38.7281C22.3249 38.7281 24.192 36.861 24.192 34.5578C24.192 32.2548 22.3249 30.3877 20.0217 30.3877C17.7186 30.3877 15.8516 32.2548 15.8516 34.5578C15.8516 36.861 17.7186 38.7281 20.0217 38.7281Z" fill="#3E4958"/>
</g>
<path fill-rule="evenodd" clip-rule="evenodd" d="M20.022 31.4137C18.2853 31.4137 16.8775 32.8215 16.8775 34.5582C16.8775 36.2949 18.2853 37.7027 20.022 37.7027C21.7587 37.7027 23.1665 36.2949 23.1665 34.5582C23.1665 32.8215 21.7587 31.4137 20.022 31.4137ZM14.8262 34.5582C14.8262 31.6886 17.1524 29.3623 20.022 29.3623C22.8916 29.3623 25.2179 31.6886 25.2179 34.5582C25.2179 37.4278 22.8916 39.754 20.022 39.754C17.1524 39.754 14.8262 37.4278 14.8262 34.5582Z" fill="#FDFDFD"/>
<path fill-rule="evenodd" clip-rule="evenodd" d="M19.0107 21.9517H20.8707V33.8218H19.0107V21.9517Z" fill="#3E4958"/>
<path d="M20.0222 22.4642C26.0103 22.4642 30.8647 17.61 30.8647 11.6218C30.8647 5.63365 26.0103 0.779297 20.0222 0.779297C14.034 0.779297 9.17969 5.63365 9.17969 11.6218C9.17969 17.61 14.034 22.4642 20.0222 22.4642Z" fill="#343434"/>
<path fill-rule="evenodd" clip-rule="evenodd" d="M20.0223 1.29218C14.3174 1.29218 9.69263 5.91694 9.69263 11.6219C9.69263 17.3267 14.3174 21.9515 20.0223 21.9515C25.7273 21.9515 30.3519 17.3267 30.3519 11.6219C30.3519 5.91694 25.7273 1.29218 20.0223 1.29218ZM8.66699 11.6219C8.66699 5.35055 13.7509 0.266602 20.0223 0.266602C26.2937 0.266602 31.3777 5.35055 31.3777 11.6219C31.3777 17.8933 26.2937 22.9772 20.0223 22.9772C13.7509 22.9772 8.66699 17.8933 8.66699 11.6219Z" fill="#343434"/>
<path d="M20.0227 14.9585C21.8651 14.9585 23.3589 13.4647 23.3589 11.6223C23.3589 9.77977 21.8651 8.28613 20.0227 8.28613C18.1802 8.28613 16.6865 9.77977 16.6865 11.6223C16.6865 13.4647 18.1802 14.9585 20.0227 14.9585Z" fill="#F9FFFF"/>
<defs>
<filter id="filter0_d_0_1754" x="11.8516" y="30.3877" width="16.3408" height="16.3403" filterUnits="userSpaceOnUse" color-interpolation-filters="sRGB">
<feFlood flood-opacity="0" result="BackgroundImageFix"/>
<feColorMatrix in="SourceAlpha" type="matrix" values="0 0 0 0 0 0 0 0 0 0 0 0 0 0 0 0 0 0 127 0" result="hardAlpha"/>
<feOffset dy="4"/>
<feGaussianBlur stdDeviation="2"/>
<feComposite in2="hardAlpha" operator="out"/>
<feColorMatrix type="matrix" values="0 0 0 0 0 0 0 0 0 0 0 0 0 0 0 0 0 0 0.4 0"/>
<feBlend mode="normal" in2="BackgroundImageFix" result="effect1_dropShadow_0_1754"/>
<feBlend mode="normal" in="SourceGraphic" in2="effect1_dropShadow_0_1754" result="shape"/>
</filter>
</defs>
</svg>
