<svg xmlns="http://www.w3.org/2000/svg" width="24" height="24" viewBox="0 0 24 24" fill="none">
  <path d="M12 1C9.82441 1 7.69767 1.64514 5.88873 2.85383C4.07979 4.06253 2.66989 5.78049 1.83733 7.79048C1.00477 9.80047 0.786929 12.0122 1.21137 14.146C1.6358 16.2798 2.68345 18.2398 4.22183 19.7782C5.76021 21.3166 7.72022 22.3642 9.85401 22.7886C11.9878 23.2131 14.1995 22.9952 16.2095 22.1627C18.2195 21.3301 19.9375 19.9202 21.1462 18.1113C22.3549 16.3023 23 14.1756 23 12C23 10.5555 22.7155 9.12506 22.1627 7.79048C21.6099 6.4559 20.7996 5.24327 19.7782 4.22183C18.7567 3.20038 17.5441 2.39013 16.2095 1.83733C14.8749 1.28452 13.4445 1 12 1ZM16.4 13.1H12C11.7083 13.1 11.4285 12.9841 11.2222 12.7778C11.0159 12.5715 10.9 12.2917 10.9 12V7.6C10.9 7.30826 11.0159 7.02847 11.2222 6.82218C11.4285 6.61589 11.7083 6.5 12 6.5C12.2917 6.5 12.5715 6.61589 12.7778 6.82218C12.9841 7.02847 13.1 7.30826 13.1 7.6V10.9H16.4C16.6917 10.9 16.9715 11.0159 17.1778 11.2222C17.3841 11.4285 17.5 11.7083 17.5 12C17.5 12.2917 17.3841 12.5715 17.1778 12.7778C16.9715 12.9841 16.6917 13.1 16.4 13.1Z" fill="white"/>
</svg>