<svg width="22" height="22" viewBox="0 0 22 22" fill="none" xmlns="http://www.w3.org/2000/svg">
<path d="M11.2389 4.35188C11.1749 4.29069 11.0898 4.25653 11.0013 4.25653C10.9128 4.25653 10.8276 4.29069 10.7637 4.35188L2.85312 11.9088C2.81953 11.9409 2.7928 11.9796 2.77456 12.0223C2.75632 12.0651 2.74694 12.1111 2.74699 12.1576L2.7457 19.25C2.7457 19.6147 2.89057 19.9644 3.14843 20.2223C3.40629 20.4801 3.75603 20.625 4.1207 20.625H8.25C8.43234 20.625 8.6072 20.5526 8.73613 20.4236C8.86507 20.2947 8.9375 20.1198 8.9375 19.9375V14.0938C8.9375 14.0026 8.97372 13.9152 9.03818 13.8507C9.10265 13.7862 9.19008 13.75 9.28125 13.75H12.7187C12.8099 13.75 12.8974 13.7862 12.9618 13.8507C13.0263 13.9152 13.0625 14.0026 13.0625 14.0938V19.9375C13.0625 20.1198 13.1349 20.2947 13.2639 20.4236C13.3928 20.5526 13.5677 20.625 13.75 20.625H17.8776C18.2422 20.625 18.592 20.4801 18.8498 20.2223C19.1077 19.9644 19.2526 19.6147 19.2526 19.25V12.1576C19.2526 12.1111 19.2433 12.0651 19.225 12.0223C19.2068 11.9796 19.18 11.9409 19.1464 11.9088L11.2389 4.35188Z" fill="#989898"/>
<path d="M21.0938 10.4908L17.8797 7.41598V2.75C17.8797 2.56766 17.8073 2.3928 17.6784 2.26386C17.5494 2.13493 17.3746 2.0625 17.1922 2.0625H15.1297C14.9474 2.0625 14.7725 2.13493 14.6436 2.26386C14.5147 2.3928 14.4422 2.56766 14.4422 2.75V4.125L11.9535 1.74539C11.7206 1.50992 11.3743 1.375 11 1.375C10.627 1.375 10.2816 1.50992 10.0487 1.74582L0.909219 10.49C0.641953 10.7478 0.608438 11.1719 0.851641 11.4512C0.912713 11.5217 0.987491 11.579 1.07143 11.6197C1.15536 11.6604 1.24669 11.6835 1.33987 11.6878C1.43304 11.6921 1.52611 11.6773 1.61341 11.6445C1.70071 11.6116 1.78041 11.5613 1.84766 11.4967L10.7637 2.97688C10.8276 2.91568 10.9128 2.88152 11.0013 2.88152C11.0898 2.88152 11.1749 2.91568 11.2389 2.97688L20.1558 11.4967C20.2871 11.6227 20.4631 11.6914 20.645 11.6879C20.827 11.6843 21.0001 11.6088 21.1264 11.4778C21.3903 11.2045 21.3684 10.7534 21.0938 10.4908Z" fill="#989898"/>
</svg>
