<svg xmlns="http://www.w3.org/2000/svg" width="24" height="24" viewBox="0 0 24 24" fill="none">
  <path d="M9.06 1.00004C7.17 0.989083 5.33 2.9841 6.17 5.46142H3C2.46957 5.46142 1.96086 5.6924 1.58579 6.10354C1.21071 6.51468 1 7.0723 1 7.65374V9.84606C1 10.1368 1.10536 10.4156 1.29289 10.6212C1.48043 10.8267 1.73478 10.9422 2 10.9422H11V7.65374H13V10.9422H22C22.2652 10.9422 22.5196 10.8267 22.7071 10.6212C22.8946 10.4156 23 10.1368 23 9.84606V7.65374C23 7.0723 22.7893 6.51468 22.4142 6.10354C22.0391 5.6924 21.5304 5.46142 21 5.46142H17.83C19 1.87697 14.6 -0.655158 12.57 2.43602L12 3.2691L11.43 2.41409C10.8 1.43851 9.93 1.01101 9.06 1.00004ZM9 3.2691C9.89 3.2691 10.34 4.45295 9.71 5.14353C9.08 5.83412 8 5.34084 8 4.36526C8 4.07454 8.10536 3.79573 8.29289 3.59016C8.48043 3.38459 8.73478 3.2691 9 3.2691ZM15 3.2691C15.89 3.2691 16.34 4.45295 15.71 5.14353C15.08 5.83412 14 5.34084 14 4.36526C14 4.07454 14.1054 3.79573 14.2929 3.59016C14.4804 3.38459 14.7348 3.2691 15 3.2691ZM2 12.0384V20.8077C2 21.3891 2.21071 21.9467 2.58579 22.3579C2.96086 22.769 3.46957 23 4 23H20C20.5304 23 21.0391 22.769 21.4142 22.3579C21.7893 21.9467 22 21.3891 22 20.8077V12.0384H13V20.8077H11V12.0384H2Z" fill="white"/>
</svg>