<svg width="22" height="22" viewBox="0 0 22 22" fill="none" xmlns="http://www.w3.org/2000/svg">
<path d="M11 1.83334C9.187 1.83334 7.41472 2.37096 5.90727 3.37821C4.39982 4.38545 3.22491 5.81709 2.5311 7.49208C1.8373 9.16707 1.65577 11.0102 2.00947 12.7883C2.36317 14.5665 3.23621 16.1998 4.51819 17.4818C5.80017 18.7638 7.43351 19.6368 9.21167 19.9905C10.9898 20.3442 12.8329 20.1627 14.5079 19.4689C16.1829 18.7751 17.6146 17.6002 18.6218 16.0927C19.629 14.5853 20.1667 12.813 20.1667 11C20.1667 9.79623 19.9296 8.60423 19.4689 7.49208C19.0082 6.37993 18.333 5.3694 17.4818 4.5182C16.6306 3.66699 15.6201 2.99178 14.5079 2.53111C13.3958 2.07045 12.2038 1.83334 11 1.83334ZM14.6667 11.9167H11C10.7569 11.9167 10.5237 11.8201 10.3518 11.6482C10.1799 11.4763 10.0833 11.2431 10.0833 11V7.33334C10.0833 7.09023 10.1799 6.85707 10.3518 6.68516C10.5237 6.51325 10.7569 6.41668 11 6.41668C11.2431 6.41668 11.4763 6.51325 11.6482 6.68516C11.8201 6.85707 11.9167 7.09023 11.9167 7.33334V10.0833H14.6667C14.9098 10.0833 15.1429 10.1799 15.3148 10.3518C15.4868 10.5237 15.5833 10.7569 15.5833 11C15.5833 11.2431 15.4868 11.4763 15.3148 11.6482C15.1429 11.8201 14.9098 11.9167 14.6667 11.9167Z" fill="#989898"/>
</svg>
