<svg width="2732" height="2732" viewBox="0 0 2732 2732" fill="none" xmlns="http://www.w3.org/2000/svg">
<rect width="2732" height="2732" fill="url(#paint0_linear_0_17565)"/>
<g clip-path="url(#clip0_0_17565)">
<path fill-rule="evenodd" clip-rule="evenodd" d="M1475.04 1410.35C1475.04 1396.21 1470.15 1384.18 1460.51 1373.84C1450.82 1363.46 1439.03 1358.33 1424.87 1358.33C1410.66 1358.33 1398.92 1363.46 1389.23 1373.84C1379.64 1384.18 1374.7 1396.21 1374.7 1410.35C1374.7 1424.48 1379.59 1436.51 1389.23 1446.85C1398.92 1457.23 1410.71 1462.36 1424.87 1462.36C1439.08 1462.36 1450.82 1457.23 1460.51 1446.85C1470.15 1436.51 1475.04 1424.48 1475.04 1410.35ZM1694.36 1488.98C1694.36 1492.14 1691.8 1494.7 1688.65 1494.7H1663.42C1660.27 1494.7 1657.71 1492.14 1657.71 1488.98V1389.99C1657.71 1371.6 1642.68 1356.55 1624.31 1356.55C1605.95 1356.55 1590.91 1371.6 1590.91 1389.99V1488.98C1590.91 1492.14 1588.35 1494.7 1585.2 1494.7H1559.98C1556.83 1494.7 1554.27 1492.14 1554.27 1488.98V1330.25C1554.27 1327.09 1556.83 1324.53 1559.98 1324.53H1585.25C1588.4 1324.53 1590.96 1327.09 1590.96 1330.25V1338.66C1593.65 1335.87 1596.58 1333.36 1599.78 1331.02C1609.37 1324.07 1620.34 1320.92 1632.13 1320.92C1641.95 1320.92 1652.6 1322.2 1661.41 1326.77C1668.72 1330.57 1675.03 1335.69 1680.06 1342.23C1680.92 1343.38 1681.79 1344.57 1682.57 1345.75C1686.73 1340.13 1691.66 1335.14 1697.42 1330.98C1707.01 1324.03 1717.98 1320.87 1729.77 1320.87C1739.59 1320.87 1750.24 1322.15 1759.06 1326.72C1766.37 1330.52 1772.67 1335.65 1777.7 1342.19C1788.25 1355.91 1792.05 1372.61 1792.05 1389.67V1488.89C1792.05 1492.05 1789.49 1494.61 1786.33 1494.61H1761.11C1757.96 1494.61 1755.4 1492.05 1755.4 1488.89V1387.34C1755.4 1370.46 1741.6 1356.6 1724.7 1356.6C1707.79 1356.6 1693.99 1370.41 1693.99 1387.34C1693.99 1421.23 1694.22 1455.08 1694.36 1488.98ZM1475.04 1477.5C1460.19 1491.64 1442.1 1499 1420.9 1499C1397.04 1499 1377.17 1489.67 1361.31 1471.83C1345.78 1454.35 1338.06 1433.72 1338.06 1410.3C1338.06 1386.93 1345.78 1366.29 1361.31 1348.77C1377.12 1330.98 1397.04 1321.6 1420.9 1321.6C1442.1 1321.6 1460.19 1328.97 1475.04 1343.1V1330.98C1475.04 1327.82 1477.6 1325.26 1480.75 1325.26H1505.97C1509.13 1325.26 1511.68 1327.82 1511.68 1330.98V1489.71C1511.68 1492.87 1509.13 1495.43 1505.97 1495.43H1480.75C1477.6 1495.43 1475.04 1492.87 1475.04 1489.71V1477.5ZM1273.45 1337.38C1281.81 1327.23 1293.1 1320.96 1308.13 1320.96C1314.39 1320.96 1320.47 1322.2 1326.22 1324.67C1328.37 1325.58 1329.65 1327.59 1329.65 1329.88V1363.78C1329.65 1366.07 1328.37 1368.03 1326.27 1368.99C1324.17 1369.91 1321.84 1369.54 1320.15 1367.99C1315.94 1364.19 1311.1 1361.54 1305.34 1361.54C1300.41 1361.54 1295.88 1362.82 1292 1365.88C1287.8 1369.22 1284.37 1373.29 1281.67 1377.96C1275.92 1387.93 1273.4 1398.82 1273.4 1410.3V1489.71C1273.4 1492.87 1270.85 1495.43 1267.69 1495.43H1242.47C1239.32 1495.43 1236.76 1492.87 1236.76 1489.71V1329.88C1236.76 1326.72 1239.32 1324.16 1242.47 1324.16H1267.69C1270.85 1324.16 1273.4 1326.72 1273.4 1329.88V1337.38H1273.45ZM1162.92 1402.71H1071.72C1068.57 1402.71 1066.01 1400.15 1066.01 1396.99V1374.99C1066.01 1371.83 1068.57 1369.27 1071.72 1369.27H1199.29C1201.03 1369.27 1202.54 1369.95 1203.63 1371.28C1204.78 1372.61 1205.19 1374.21 1204.91 1375.9L1202.4 1391.09C1196.83 1422.47 1181.47 1448.13 1156.71 1468.12C1132.22 1487.88 1104.3 1498.22 1072.82 1498.22C1055.09 1498.22 1037.87 1494.88 1021.55 1487.84C1005.84 1481.07 991.717 1471.69 979.609 1459.57C967.501 1447.45 958.134 1433.31 951.372 1417.57C944.335 1401.29 941 1383.95 941 1366.16C941 1348.32 944.335 1331.02 951.372 1314.65C958.134 1298.91 967.501 1284.73 979.609 1272.65C991.717 1260.53 1005.84 1251.15 1021.55 1244.38C1037.09 1237.71 1053.4 1234 1070.31 1234C1100.1 1234 1127.37 1242.28 1151.36 1260.07C1174.89 1277.55 1190.84 1300.56 1199.38 1328.6C1199.93 1330.38 1199.61 1332.17 1198.52 1333.63C1197.42 1335.14 1195.82 1335.92 1193.95 1335.92H1167.26C1164.89 1335.92 1162.83 1334.55 1161.96 1332.31C1154.7 1313.78 1143.09 1298.68 1126.74 1287.34C1110.51 1276.09 1092.56 1270.6 1072.87 1270.6C1046.5 1270.6 1024.16 1279.84 1005.52 1298.5C986.874 1317.16 977.644 1339.53 977.644 1365.93C977.644 1392.32 986.92 1414.65 1005.42 1433.4C1024.02 1452.25 1046.41 1461.58 1072.87 1461.58C1093.88 1461.58 1112.84 1455.54 1129.98 1443.37C1144.97 1432.81 1155.84 1419.22 1162.92 1402.71Z" fill="white"/>
<ellipse cx="1422.82" cy="1411.36" rx="56.3162" ry="56.3386" fill="white"/>
<ellipse cx="1421.77" cy="1410.32" rx="53.1875" ry="53.2087" fill="url(#paint1_linear_0_17565)"/>
</g>
<defs>
<linearGradient id="paint0_linear_0_17565" x1="-183.044" y1="-215.828" x2="2953.29" y2="2898.65" gradientUnits="userSpaceOnUse">
<stop stop-color="#131313"/>
<stop offset="1" stop-color="#2D2D2D"/>
</linearGradient>
<linearGradient id="paint1_linear_0_17565" x1="1314.53" y1="1309.74" x2="1480.86" y2="1469.95" gradientUnits="userSpaceOnUse">
<stop stop-color="#111111"/>
<stop offset="1" stop-color="#242424"/>
</linearGradient>
<clipPath id="clip0_0_17565">
<rect width="851" height="265" fill="white" transform="translate(941 1234)"/>
</clipPath>
</defs>
</svg>
