<svg xmlns="http://www.w3.org/2000/svg" width="24" height="24" viewBox="0 0 24 24" fill="none">
  <g clip-path="url(#clip0_1_26212)">
    <path d="M21.3333 3.33398H2.66667C1.95942 3.33398 1.28115 3.61494 0.781049 4.11503C0.280952 4.61513 0 5.29341 0 6.00065L0 9.00065H24V6.00065C24 5.29341 23.719 4.61513 23.219 4.11503C22.7189 3.61494 22.0406 3.33398 21.3333 3.33398Z" fill="#CC0000"/>
    <path d="M0 18C0 18.7072 0.280952 19.3855 0.781049 19.8856C1.28115 20.3857 1.95942 20.6667 2.66667 20.6667H21.3333C22.0406 20.6667 22.7189 20.3857 23.219 19.8856C23.719 19.3855 24 18.7072 24 18V15H0V18Z" fill="#006600"/>
    <path d="M0 9H24V15H0V9Z" fill="#EEEEEE"/>
    <path d="M10.7537 14.3031C10.4817 14.3804 10.323 14.1217 10.323 14.1217L10.5384 14.0251L10.6424 13.6917L10.8577 14.0017H11.1004C11.101 14.0011 11.0457 14.2197 10.7537 14.3031ZM14.1844 14.5944C13.7677 14.4691 12.7964 14.3024 12.059 14.3024C11.323 14.3024 10.351 14.4691 9.93371 14.5944C9.51638 14.7197 9.61438 15.1217 9.93371 14.9964C10.253 14.8711 11.031 14.7464 12.059 14.7464C13.087 14.7464 13.865 14.8717 14.1844 14.9964C14.5044 15.1217 14.601 14.7197 14.1844 14.5944ZM12.2264 13.8444L12.0597 13.5664L11.893 13.8444L11.601 13.9697C11.601 13.9697 11.809 14.2051 12.0597 14.2051C12.3104 14.2051 12.5184 13.9697 12.5184 13.9697L12.2264 13.8444ZM13.3657 14.3031C13.6377 14.3804 13.7964 14.1217 13.7964 14.1217L13.581 14.0251L13.477 13.6917L13.2624 14.0017H13.019C13.0177 14.0011 13.0737 14.2197 13.3657 14.3031Z" fill="#FFAC33"/>
    <path d="M14.9622 13.4658C14.8928 13.2878 14.7208 13.7645 14.2542 13.6912C13.7262 13.6078 13.6155 13.0798 13.6155 13.0798C13.6155 13.0798 13.1988 13.4972 12.7682 13.3025C12.3375 13.1078 12.2268 12.8305 12.2268 12.5245C12.2268 12.2185 12.1875 11.9938 12.2268 11.8718C12.2895 11.6772 12.5188 11.5378 12.7548 11.7605C12.9495 11.4832 12.6162 10.8998 12.0602 10.8998C11.5048 10.8998 11.1715 11.4832 11.3655 11.7605C11.6015 11.5385 11.8308 11.6772 11.8935 11.8718C11.9328 11.9938 11.8935 12.2185 11.8935 12.5245C11.8935 12.8305 11.7822 13.1078 11.3522 13.3025C10.9222 13.4972 10.5048 13.0798 10.5048 13.0798C10.5048 13.0798 10.3935 13.6078 9.86616 13.6912C9.3995 13.7645 9.2275 13.2878 9.15816 13.4658C9.08883 13.6438 9.4635 14.1772 9.9915 14.0045C10.5195 13.8312 10.5888 13.3858 10.5888 13.3858C10.5888 13.3858 10.8602 13.8852 11.4915 13.6912C11.9675 13.5445 12.0608 13.0938 12.0608 13.0938C12.0608 13.0938 12.1548 13.5445 12.6302 13.6912C13.2622 13.8852 13.5328 13.3858 13.5328 13.3858C13.5328 13.3858 13.6022 13.8312 14.1302 14.0045C14.6568 14.1772 15.0322 13.6432 14.9622 13.4658ZM11.6008 11.3992C11.7388 11.1058 12.0595 11.1492 12.0595 11.1492C12.0595 11.1492 12.3795 11.1058 12.5182 11.3992C12.2822 11.4265 12.0595 11.6072 12.0595 11.6072C12.0595 11.6072 11.8368 11.4272 11.6008 11.3992ZM8.89283 12.0618L9.02416 12.4685H9.4515L9.10616 12.7198L9.23816 13.1252L8.89283 12.8738L8.5475 13.1252L8.67883 12.7198L8.3335 12.4685H8.76083L8.89283 12.0618ZM9.3095 10.5758L9.44083 10.9825H9.86816L9.52283 11.2338L9.65483 11.6392L9.3095 11.3878L8.96416 11.6392L9.0955 11.2338L8.75016 10.9825H9.1775L9.3095 10.5758ZM10.4268 9.38118L10.5588 9.78785H10.9862L10.6408 10.0392L10.7722 10.4445L10.4268 10.1932L10.0815 10.4445L10.2135 10.0392L9.86816 9.78785H10.2955L10.4268 9.38118ZM12.0595 8.97852L12.1908 9.38452H12.6182L12.2728 9.63585L12.4048 10.0412L12.0595 9.78985L11.7142 10.0412L11.8455 9.63585L11.5002 9.38452H11.9275L12.0595 8.97852ZM15.1075 12.0618L14.9762 12.4685H14.5488L14.8942 12.7198L14.7622 13.1252L15.1075 12.8738L15.4528 13.1252L15.3208 12.7198L15.6668 12.4685H15.2395L15.1075 12.0618ZM14.6908 10.5758L14.5595 10.9825H14.1322L14.4775 11.2338L14.3455 11.6392L14.6908 11.3878L15.0362 11.6392L14.9042 11.2338L15.2502 10.9825H14.8228L14.6908 10.5758ZM13.5735 9.38118L13.4415 9.78785H13.0142L13.3602 10.0392L13.2282 10.4445L13.5735 10.1932L13.9188 10.4445L13.7868 10.0392L14.1322 9.78785H13.7048L13.5735 9.38118Z" fill="#FFAC33"/>
  </g>
  <defs>
    <clipPath id="clip0_1_26212">
      <rect width="24" height="24" fill="white"/>
    </clipPath>
  </defs>
</svg>